P3
4 1
255
233 234 111    122 222 122  121 232 232    255 255 0
