P3
1 5
255
0 0 0
255 255 255
111 111 111
232 132 242
132 232 122
